#!OML:ASF C:\Vicon Data\Big\jianyuan-13\jianyuan\Session 1\Capture.male.ASF
:FULLY-SPECIFIED
:DEGREES
209
root -6.089385 17.960948 -9.366993 -1.574059 10.860872 -0.108026
lowerback -4.980724 -1.043206 -3.841196 
upperback 2.735635 -1.114211 -0.968058 
thorax 5.696844 -0.699614 1.035002 
lowerneck -5.517851 -2.486735 3.075190 
upperneck 9.237190 -3.462878 -3.251514 
head 3.891031 -1.813097 -1.809206 
rclavicle 0.000000 0.000000 
rhumerus -39.412995 -17.334973 -78.431868 
rradius 36.180938 
rwrist 26.367020 
rhand -19.200248 -19.385471 
rfingers 0.000000 
rthumb 7.111861 -49.245980 
lclavicle 0.000000 0.000000 
lhumerus -21.812707 21.600227 84.818468 
lradius 32.686061 
lwrist -43.296735 
lhand -20.693531 0.503535 
lfingers 0.000000 
lthumb 5.670226 30.407678 
rfemur -75.953197 -16.887049 20.498772 
rtibia 88.793451 
rfoot -8.508805 -1.218552 
rtoes -33.847845 
lfemur -0.853358 -4.706900 -24.681750 
ltibia 7.289064 
lfoot -9.185287 3.084147 
ltoes -31.565003 
210
root -6.086225 17.958273 -9.311789 -1.502687 10.886059 -0.354204
lowerback -5.044951 -1.048623 -3.623813 
upperback 2.724165 -1.134814 -0.863759 
thorax 5.719481 -0.701559 1.018996 
lowerneck -5.768063 -2.539123 2.289570 
upperneck 9.428745 -3.525329 -2.608367 
head 4.027095 -1.842424 -1.466580 
rclavicle 0.000000 0.000000 
rhumerus -39.381560 -17.438865 -78.346245 
rradius 36.138292 
rwrist 26.499401 
rhand -19.294478 -19.398403 
rfingers 0.000000 
rthumb 7.020869 -49.261913 
lclavicle 0.000000 0.000000 
lhumerus -21.986792 21.676161 84.808025 
lradius 32.700736 
lwrist -43.338522 
lhand -20.863877 0.595241 
lfingers 0.000000 
lthumb 5.505761 30.503688 
rfemur -76.177607 -16.581047 20.910296 
rtibia 88.092264 
rfoot -8.645931 -1.804581 
rtoes -33.556348 
lfemur -0.928078 -4.746974 -24.373819 
ltibia 7.552586 
lfoot -9.399421 2.964160 
ltoes -31.058390 
211
root -6.073278 17.960545 -9.250987 -1.527743 10.727980 -0.239173
lowerback -5.043811 -0.985336 -3.633942 
upperback 2.741733 -1.049143 -0.891916 
thorax 5.732987 -0.660116 1.003787 
lowerneck -5.610369 -2.553820 1.998337 
upperneck 9.245019 -3.534342 -2.366703 
head 3.938282 -1.843939 -1.326202 
rclavicle 0.000000 0.000000 
rhumerus -39.359785 -17.427612 -78.299108 
rradius 36.100392 
rwrist 26.300714 
rhand -19.377953 -19.440273 
rfingers 0.000000 
rthumb 6.940325 -49.306483 
lclavicle 0.000000 0.000000 
lhumerus -22.274118 21.632084 84.772383 
lradius 32.710760 
lwrist -43.344008 
lhand -20.961705 0.717245 
lfingers 0.000000 
lthumb 5.411357 30.628154 
rfemur -76.227047 -16.260343 20.855425 
rtibia 87.490294 
rfoot -8.781576 -2.136622 
rtoes -33.737500 
lfemur -0.675200 -4.586000 -24.523359 
ltibia 7.674414 
lfoot -9.662221 2.795224 
ltoes -30.139244 
212
root -6.066575 17.954972 -9.192348 -1.455993 10.670695 -0.186153
lowerback -5.127633 -0.903508 -3.519056 
upperback 2.758246 -0.941299 -0.983454 
thorax 5.789323 -0.602350 0.853546 
lowerneck -5.628965 -2.581241 2.059814 
upperneck 9.168458 -3.578831 -2.301932 
head 3.913662 -1.859003 -1.316272 
rclavicle 0.000000 0.000000 
rhumerus -39.391707 -17.848703 -78.174059 
rradius 36.089561 
rwrist 26.610059 
rhand -19.127703 -19.333184 
rfingers 0.000000 
rthumb 7.181898 -49.191230 
lclavicle 0.000000 0.000000 
lhumerus -22.476818 21.704482 84.599089 
lradius 32.575696 
lwrist -43.652505 
lhand -20.997703 0.697039 
lfingers 0.000000 
lthumb 5.376547 30.608826 
rfemur -76.364838 -15.954061 20.900070 
rtibia 86.918688 
rfoot -8.949544 -2.537017 
rtoes -33.594137 
lfemur -0.527939 -4.533687 -24.562895 
ltibia 7.670727 
lfoot -9.805997 2.673452 
ltoes -29.466174 
213
root -6.061628 17.951426 -9.130126 -1.474780 10.606586 -0.013863
lowerback -5.091989 -0.873249 -3.685860 
upperback 2.800717 -0.891166 -0.999479 
thorax 5.814551 -0.585928 0.935174 
lowerneck -5.732575 -2.593275 2.164904 
upperneck 9.196325 -3.585849 -2.512340 
head 3.938888 -1.868433 -1.408745 
rclavicle 0.000000 0.000000 
rhumerus -39.269601 -17.482347 -78.262435 
rradius 35.999382 
rwrist 26.613817 
rhand -19.048545 -19.485158 
rfingers 0.000000 
rthumb 7.258297 -49.340701 
lclavicle 0.000000 0.000000 
lhumerus -22.747411 22.366340 84.435820 
lradius 32.355969 
lwrist -44.157144 
lhand -21.082029 0.794237 
lfingers 0.000000 
lthumb 5.295189 30.708126 
rfemur -76.306776 -15.651909 20.762148 
rtibia 86.343842 
rfoot -8.758555 -2.793732 
rtoes -33.135133 
lfemur -0.187691 -4.463697 -24.760939 
ltibia 7.585121 
lfoot -9.958608 2.608948 
ltoes -29.402686 
214
root -6.052930 17.949456 -9.063167 -1.520218 10.417894 0.069789
lowerback -5.117460 -0.811221 -3.708858 
upperback 2.829095 -0.805241 -1.011610 
thorax 5.855381 -0.545674 0.943420 
lowerneck -5.807331 -2.575897 2.391644 
upperneck 9.286906 -3.560397 -2.803181 
head 3.978745 -1.862804 -1.549418 
rclavicle 0.000000 0.000000 
rhumerus -39.246448 -17.553048 -78.210982 
rradius 35.888761 
rwrist 26.661971 
rhand -19.242076 -19.519313 
rfingers 0.000000 
rthumb 7.071513 -49.381169 
lclavicle 0.000000 0.000000 
lhumerus -23.130681 23.609525 84.053633 
lradius 31.960959 
lwrist -45.530100 
lhand -21.180830 0.502431 
lfingers 0.000000 
lthumb 5.199722 30.418641 
rfemur -76.185697 -15.252784 20.697767 
rtibia 85.760100 
rfoot -8.806672 -2.951220 
rtoes -32.193901 
lfemur 0.494732 -4.270284 -24.883125 
ltibia 6.924205 
lfoot -9.926799 2.683481 
ltoes -29.820313 
215
root -6.043261 17.950150 -8.995113 -1.577147 10.214621 0.220600
lowerback -5.136313 -0.717861 -3.708179 
upperback 2.864180 -0.677716 -1.109420 
thorax 5.896061 -0.483487 0.853444 
lowerneck -5.732019 -2.568069 2.475422 
upperneck 9.245770 -3.558658 -2.777902 
head 3.948335 -1.857489 -1.552826 
rclavicle 0.000000 0.000000 
rhumerus -39.213799 -17.685498 -78.238501 
rradius 35.800849 
rwrist 26.546094 
rhand -19.356452 -19.569152 
rfingers 0.000000 
rthumb 6.961088 -49.434702 
lclavicle 0.000000 0.000000 
lhumerus -23.531057 24.040305 83.709045 
lradius 31.651947 
lwrist -46.111256 
lhand -21.035096 0.644028 
lfingers 0.000000 
lthumb 5.340449 30.556699 
rfemur -75.946800 -14.819846 20.512299 
rtibia 85.120790 
rfoot -8.661025 -2.785233 
rtoes -32.375811 
lfemur 1.175341 -4.057664 -25.056953 
ltibia 6.308771 
lfoot -9.899599 2.610644 
ltoes -28.856031 
216
root -6.035900 17.950153 -8.926910 -1.436332 10.054015 0.275389
lowerback -5.354071 -0.738508 -3.780158 
upperback 2.840446 -0.689226 -1.049765 
thorax 5.998511 -0.492896 0.952266 
lowerneck -5.727863 -2.521005 2.427613 
upperneck 9.286116 -3.487301 -2.843516 
head 3.963847 -1.828127 -1.563860 
rclavicle 0.000000 0.000000 
rhumerus -39.118713 -17.872972 -78.059931 
rradius 35.630192 
rwrist 26.847481 
rhand -19.445333 -19.440582 
rfingers 0.000000 
rthumb 6.875243 -49.308922 
lclavicle 0.000000 0.000000 
lhumerus -24.046971 24.294864 83.457971 
lradius 31.470289 
lwrist -46.104175 
lhand -20.790064 0.681948 
lfingers 0.000000 
lthumb 5.577065 30.588509 
rfemur -75.852689 -14.357612 20.427954 
rtibia 84.400594 
rfoot -8.596157 -2.633771 
rtoes -32.380257 
lfemur 1.398064 -3.909341 -25.118431 
ltibia 6.115513 
lfoot -10.027740 2.548742 
ltoes -28.685996 
217
root -6.027844 17.951557 -8.859942 -1.354544 9.947234 0.068148
lowerback -5.566399 -0.724323 -3.521226 
upperback 2.822185 -0.679663 -0.958865 
thorax 6.097567 -0.478092 0.900904 
lowerneck -5.746875 -2.472138 2.461762 
upperneck 9.351684 -3.423257 -2.888728 
head 3.991901 -1.798516 -1.584183 
rclavicle 0.000000 0.000000 
rhumerus -39.077179 -18.086459 -77.867069 
rradius 35.536227 
rwrist 27.380040 
rhand -19.173892 -19.335309 
rfingers 0.000000 
rthumb 7.137284 -49.194946 
lclavicle 0.000000 0.000000 
lhumerus -24.543712 24.502142 83.238205 
lradius 31.179803 
lwrist -45.952684 
lhand -20.677935 0.764709 
lfingers 0.000000 
lthumb 5.685310 30.668420 
rfemur -75.610038 -13.921915 20.620072 
rtibia 83.584431 
rfoot -8.609457 -2.336584 
rtoes -32.477017 
lfemur 1.429050 -3.819107 -24.888299 
ltibia 6.321837 
lfoot -10.331483 2.412363 
ltoes -28.194639 
218
root -6.021625 17.946236 -8.791193 -1.267412 9.820995 0.044755
lowerback -5.682472 -0.740559 -3.460989 
upperback 2.744637 -0.700010 -0.945919 
thorax 6.082372 -0.483336 0.878049 
lowerneck -5.653589 -2.423976 2.654475 
upperneck 9.468071 -3.366298 -3.061638 
head 4.011729 -1.774731 -1.674755 
rclavicle 0.000000 0.000000 
rhumerus -39.012973 -17.697335 -78.031688 
rradius 35.438353 
rwrist 27.028121 
rhand -19.314175 -19.581222 
rfingers 0.000000 
rthumb 7.001906 -49.445391 
lclavicle 0.000000 0.000000 
lhumerus -25.227131 24.902390 82.753475 
lradius 30.793272 
lwrist -46.496485 
lhand -20.841722 0.842041 
lfingers 0.000000 
lthumb 5.527199 30.749955 
rfemur -75.320736 -13.518537 20.599920 
rtibia 82.795475 
rfoot -8.694599 -1.864553 
rtoes -32.781238 
lfemur 1.476097 -3.703332 -24.865750 
ltibia 6.583817 
lfoot -10.692697 2.265902 
ltoes -28.000209 
